<?xml version="1.0" standalone="no"?><!DOCTYPE svg PUBLIC "-//W3C//DTD SVG 1.1//EN" "http://www.w3.org/Graphics/SVG/1.1/DTD/svg11.dtd"><svg t="1522695002143" class="icon" style="" viewBox="0 0 1024 1024" version="1.1" xmlns="http://www.w3.org/2000/svg" p-id="2130" xmlns:xlink="http://www.w3.org/1999/xlink" width="200" height="200"><defs><style type="text/css"></style></defs><path d="M512 960.591855c-247.75164 0-448.591855-200.845331-448.591855-448.594925S264.247336 63.408145 512 63.408145 960.591855 264.247336 960.591855 511.99693 759.75164 960.591855 512 960.591855zM749.489926 406.454152c0-33.18275-19.556405-52.78111-52.774971-52.78111l-79.162968 0 0-79.160921c0-16.146749-10.227945-26.387997-26.387997-26.387997L432.837032 248.124124c-17.059538 0-26.387997 10.241248-26.387997 26.387997l0 79.160921-79.162968 0c-33.219589 0-52.775994 19.59836-52.775994 52.78111l0 263.872806c0 32.282241 19.556405 52.77804 52.775994 52.77804l369.428887 0c33.219589 0 52.774971-20.4958 52.774971-52.77804L749.489926 406.454152zM538.387997 643.935891l-52.775994 0 0-79.160921-79.162968 0 0-52.772924 79.162968 0 0-79.166037 52.775994 0 0 79.166037 79.162968 0 0 52.772924-79.162968 0L538.387997 643.935891zM459.224006 300.898071l105.548918 0 0 52.775994L459.224006 353.674065 459.224006 300.898071z" p-id="2131" fill="#1c78c3"></path></svg>